<svg width="54" height="54" viewBox="0 0 54 54" fill="none" xmlns="http://www.w3.org/2000/svg">
<g clip-path="url(#clip0_2341_3359)">
<g filter="url(#filter0_d_2341_3359)">
<path d="M20.3885 47.6584H29.2552V29.9029H37.2441L38.1219 21.0806H29.2552V16.6251C29.2552 16.0372 29.4887 15.4734 29.9044 15.0577C30.3201 14.642 30.884 14.4084 31.4719 14.4084H38.1219V5.54175H31.4719C28.5324 5.54175 25.7133 6.70945 23.6348 8.78798C21.5562 10.8665 20.3885 13.6856 20.3885 16.6251V21.0806H15.9552L15.0774 29.9029H20.3885V47.6584Z" fill="#CCCCCC"/>
<path d="M29.2552 29.4029H28.7552V29.9029V47.1584H20.8885V29.9029V29.4029H20.3885H15.6296L16.4079 21.5806H20.3885H20.8885V21.0806V16.6251C20.8885 13.8182 22.0036 11.1263 23.9883 9.14153C25.9731 7.15677 28.665 6.04175 31.4719 6.04175H37.6219V13.9084H31.4719C30.7514 13.9084 30.0604 14.1946 29.5509 14.7041C29.0414 15.2136 28.7552 15.9046 28.7552 16.6251V21.0806V21.5806H29.2552H37.5696L36.7913 29.4029H29.2552Z" stroke="black"/>
</g>
</g>
<defs>
<filter id="filter0_d_2341_3359" x="11.0774" y="5.54175" width="31.0445" height="50.1167" filterUnits="userSpaceOnUse" color-interpolation-filters="sRGB">
<feFlood flood-opacity="0" result="BackgroundImageFix"/>
<feColorMatrix in="SourceAlpha" type="matrix" values="0 0 0 0 0 0 0 0 0 0 0 0 0 0 0 0 0 0 127 0" result="hardAlpha"/>
<feOffset dy="4"/>
<feGaussianBlur stdDeviation="2"/>
<feComposite in2="hardAlpha" operator="out"/>
<feColorMatrix type="matrix" values="0 0 0 0 0 0 0 0 0 0 0 0 0 0 0 0 0 0 0.25 0"/>
<feBlend mode="normal" in2="BackgroundImageFix" result="effect1_dropShadow_2341_3359"/>
<feBlend mode="normal" in="SourceGraphic" in2="effect1_dropShadow_2341_3359" result="shape"/>
</filter>
<clipPath id="clip0_2341_3359">
<rect width="53.2" height="53.2" fill="white"/>
</clipPath>
</defs>
</svg>
